<svg xmlns="http://www.w3.org/2000/svg" width="37" height="32" viewBox="0 0 37 32" fill="none">
  <path opacity="0.9" d="M21.134 0C12.3686 0 5.28571 7.16444 5.28571 16H0L6.86262 22.9244L6.98595 23.1822L14.0952 16H8.80952C8.80952 9.12889 14.3331 3.55556 21.1429 3.55556C27.9526 3.55556 33.4762 9.12889 33.4762 16C33.4762 22.8711 27.9526 28.4444 21.1429 28.4444C17.7336 28.4444 14.659 27.04 12.4302 24.7911L9.93714 27.3067C12.8002 30.2044 16.7557 32 21.134 32C29.8995 32 37 24.8356 37 16C37 7.16444 29.8995 0 21.134 0ZM19.381 8.88889V17.7778L26.9219 22.2933L28.1905 20.1333L22.0238 16.4444V8.88889H19.381Z" fill="black"/>
</svg>