<svg xmlns="http://www.w3.org/2000/svg" width="31" height="31" viewBox="0 0 31 31" fill="none">
  <path d="M21.2558 16.5995C22.7829 15.4046 23.8976 13.766 24.4447 11.9118C24.9918 10.0575 24.9442 8.07977 24.3085 6.25369C23.6727 4.42761 22.4805 2.84399 20.8976 1.72315C19.3148 0.602316 17.42 0 15.4769 0C13.5338 0 11.639 0.602316 10.0562 1.72315C8.47329 2.84399 7.28106 4.42761 6.64533 6.25369C6.0096 8.07977 5.96199 10.0575 6.50911 11.9118C7.05624 13.766 8.17089 15.4046 9.698 16.5995C7.08126 17.6421 4.79807 19.3713 3.09183 21.6029C1.38558 23.8345 0.320246 26.4848 0.00939552 29.2711C-0.0131054 29.4746 0.00490408 29.6804 0.0623954 29.8769C0.119887 30.0734 0.215734 30.2568 0.344465 30.4164C0.604449 30.7389 0.982592 30.9455 1.39571 30.9907C1.80882 31.0358 2.22307 30.916 2.54732 30.6574C2.87157 30.3989 3.07926 30.0228 3.1247 29.6119C3.46674 26.5837 4.91863 23.787 7.20298 21.7561C9.48733 19.7252 12.444 18.6025 15.5081 18.6025C18.5721 18.6025 21.5288 19.7252 23.8131 21.7561C26.0975 23.787 27.5494 26.5837 27.8914 29.6119C27.9337 29.9926 28.1164 30.3441 28.404 30.5988C28.6917 30.8534 29.064 30.993 29.4491 30.9907H29.6204C30.0287 30.9439 30.4019 30.7386 30.6587 30.4194C30.9154 30.1002 31.0349 29.6931 30.9911 29.2866C30.6788 26.4924 29.6077 23.8353 27.8927 21.6003C26.1777 19.3653 23.8834 17.6365 21.2558 16.5995ZM15.4769 15.4996C14.2446 15.4996 13.04 15.1362 12.0154 14.4553C10.9907 13.7744 10.1921 12.8067 9.72056 11.6744C9.24898 10.5422 9.12559 9.29628 9.366 8.09429C9.60641 6.8923 10.1998 5.78821 11.0712 4.92162C11.9426 4.05503 13.0527 3.46488 14.2614 3.22579C15.47 2.9867 16.7228 3.10941 17.8613 3.5784C18.9997 4.0474 19.9728 4.84161 20.6575 5.8606C21.3421 6.8796 21.7075 8.07762 21.7075 9.30316C21.7075 10.9466 21.0511 12.5226 19.8826 13.6847C18.7141 14.8467 17.1294 15.4996 15.4769 15.4996Z" fill="black"/>
</svg>