<!-- Lưu file này dưới dạng icon.svg -->
<svg xmlns="http://www.w3.org/2000/svg" width="26" height="29" viewBox="0 0 26 29" fill="none">
  <path d="M24.5555 8.72426L15.8889 1.10638C15.0944 0.393895 14.0659 0 13 0C11.9341 0 10.9056 0.393895 10.1112 1.10638L1.44457 8.72426C0.985773 9.13568 0.619655 9.64037 0.370594 10.2047C0.121533 10.7691 -0.00475588 11.3802 0.000136924 11.9973V24.6552C0.000136924 25.8075 0.45668 26.9126 1.26933 27.7274C2.08198 28.5422 3.18418 29 4.33344 29H21.6666C22.8159 29 23.9181 28.5422 24.7308 27.7274C25.5434 26.9126 26 25.8075 26 24.6552V11.9829C26.0028 11.3682 25.8755 10.7599 25.6265 10.1981C25.3775 9.63641 25.0125 9.13406 24.5555 8.72426ZM15.8889 26.1035H10.1112V18.8621C10.1112 18.478 10.2634 18.1097 10.5342 17.8381C10.8051 17.5665 11.1725 17.4139 11.5556 17.4139H14.4445C14.8276 17.4139 15.195 17.5665 15.4658 17.8381C15.7367 18.1097 15.8889 18.478 15.8889 18.8621V26.1035ZM23.1111 24.6552C23.1111 25.0393 22.9589 25.4077 22.688 25.6793C22.4171 25.9509 22.0497 26.1035 21.6666 26.1035H18.7778V18.8621C18.7778 17.7098 18.3212 16.6047 17.5086 15.7899C16.6959 14.9751 15.5937 14.5173 14.4445 14.5173H11.5556C10.4063 14.5173 9.30415 14.9751 8.4915 15.7899C7.67885 16.6047 7.22231 17.7098 7.22231 18.8621V26.1035H4.33344C3.95035 26.1035 3.58295 25.9509 3.31207 25.6793C3.04119 25.4077 2.88901 25.0393 2.88901 24.6552V11.9829C2.88927 11.7772 2.9332 11.574 3.01787 11.3867C3.10255 11.1994 3.22604 11.0324 3.38011 10.8967L12.0467 3.29326C12.3103 3.06108 12.6492 2.93303 13 2.93303C13.3509 2.93303 13.6898 3.06108 13.9534 3.29326L22.62 10.8967C22.7741 11.0324 22.8975 11.1994 22.9822 11.3867C23.0669 11.574 23.1108 11.7772 23.1111 11.9829V24.6552Z" fill="black"/>
</svg>

