<svg xmlns="http://www.w3.org/2000/svg" width="31" height="28" viewBox="0 0 31 28" fill="none">
  <path d="M12.3928 15.5556H18.6072C19.0193 15.5556 19.4144 15.3917 19.7058 15.0999C19.9972 14.8082 20.1608 14.4126 20.1608 14C20.1608 13.5874 19.9972 13.1918 19.7058 12.9001C19.4144 12.6083 19.0193 12.4444 18.6072 12.4444H12.3928C11.9807 12.4444 11.5856 12.6083 11.2942 12.9001C11.0028 13.1918 10.8392 13.5874 10.8392 14C10.8392 14.4126 11.0028 14.8082 11.2942 15.0999C11.5856 15.3917 11.9807 15.5556 12.3928 15.5556ZM26.3753 0H4.62469C3.53166 0.00849079 2.47638 0.401354 1.64332 1.10991C0.810259 1.81847 0.252422 2.79765 0.0673225 3.87627C-0.117777 4.9549 0.0816372 6.06435 0.630706 7.01068C1.17977 7.95702 2.04357 8.68003 3.07108 9.05333V23.3333C3.07108 24.571 3.56213 25.758 4.43621 26.6332C5.31029 27.5083 6.49579 28 7.73193 28H23.2681C24.5042 28 25.6897 27.5083 26.5638 26.6332C27.4379 25.758 27.9289 24.571 27.9289 23.3333V9.05333C28.9564 8.68003 29.8202 7.95702 30.3693 7.01068C30.9184 6.06435 31.1178 4.9549 30.9327 3.87627C30.7476 2.79765 30.1897 1.81847 29.3567 1.10991C28.5236 0.401354 27.4683 0.00849079 26.3753 0ZM24.8217 23.3333C24.8217 23.7459 24.658 24.1416 24.3666 24.4333C24.0753 24.725 23.6801 24.8889 23.2681 24.8889H7.73193C7.31988 24.8889 6.92471 24.725 6.63335 24.4333C6.34199 24.1416 6.17831 23.7459 6.17831 23.3333V9.33333H24.8217V23.3333ZM26.3753 6.22222H4.62469C4.21265 6.22222 3.81748 6.05833 3.52612 5.76661C3.23476 5.47489 3.07108 5.07923 3.07108 4.66667C3.07108 4.25411 3.23476 3.85845 3.52612 3.56672C3.81748 3.275 4.21265 3.11111 4.62469 3.11111H26.3753C26.7874 3.11111 27.1825 3.275 27.4739 3.56672C27.7652 3.85845 27.9289 4.25411 27.9289 4.66667C27.9289 5.07923 27.7652 5.47489 27.4739 5.76661C27.1825 6.05833 26.7874 6.22222 26.3753 6.22222Z" fill="black"/>
</svg>